<?xml version="1.0" encoding="UTF-8" standalone="no"?>
<!-- Created with Inkscape (http://www.inkscape.org/) -->

<svg
   xmlns:dc="http://purl.org/dc/elements/1.1/"
   xmlns:cc="http://creativecommons.org/ns#"
   xmlns:rdf="http://www.w3.org/1999/02/22-rdf-syntax-ns#"
   xmlns:svg="http://www.w3.org/2000/svg"
   xmlns="http://www.w3.org/2000/svg"
   xmlns:sodipodi="http://sodipodi.sourceforge.net/DTD/sodipodi-0.dtd"
   xmlns:inkscape="http://www.inkscape.org/namespaces/inkscape"
   width="448"
   height="250"
   id="svg2"
   version="1.1">
  <g
     inkscape:label="Layer 1"
     inkscape:groupmode="layer"
     id="layer1"
     transform="translate(-81.894793,-29.63233)">
    <path
       style="fill:#0075bb;fill-rule:nonzero;stroke:none"
       d="m 455.14977,249.8656 0,-27.33495 60.02882,0 0,-27.33496 -60.02882,0 0,-26.2992 69.55327,0 0,-27.33495 -110.73583,0 0,135.63901 115.91461,0 0,-27.33495 z m -95.3346,-22.15617 -0.33774,0 -63.15861,-86.14789 -41.52031,0 0,135.63901 36.67928,0 0,-84.77438 0.33774,0 62.4606,84.77438 42.21832,0 0,-135.63901 -36.67928,0 z M 163.47184,139.12976 c -45.77591,0 -79.370436,17.56282 -81.396916,65.59038 l 40.236876,0 c 1.75628,-23.32702 17.11249,-33.41439 41.16004,-33.41439 25.60119,0 41.3627,11.41584 41.3627,38.0753 0,26.63694 -15.76151,38.05277 -41.3627,38.05277 -23.88994,0 -39.1786,-9.92974 -41.11501,-32.89651 l -40.236873,0 c 2.229127,47.64478 35.733583,65.09502 81.351883,65.09502 47.23949,0 81.48699,-18.68864 81.48699,-70.25128 0,-51.56264 -34.2475,-70.25129 -81.48699,-70.25129"
       id="path18887" />
    <path
       style="fill:#bec0c3;fill-rule:nonzero;stroke:none"
       d="m 169.55128,106.23325 -15.87409,0 0,-47.869947 -12.24894,47.869947 -14.36548,0 -12.22643,-47.869947 0,47.869947 -15.874088,0 0,-62.708279 25.601188,0 9.7271,38.142845 9.74962,-38.142845 25.51112,0 z m 29.90183,-76.173108 -117.558317,0 0,89.525358 117.918577,0 C 189.74853,107.35907 183.6916,91.68763 183.6916,74.597655 c 0,-16.864812 5.92183,-32.35612 15.76151,-44.537513 m 307.95731,76.173108 -52.93614,0 0,-62.708279 51.99045,0 0,13.442313 -32.58129,0 0,9.907233 30.2621,0 0,12.766819 -30.2621,0 0,12.361524 33.52698,0 z m -72.86319,0 -19.43191,0 0,-62.708279 19.43191,0 z m -55.77322,0 -21.00783,0 -23.70981,-62.708279 20.26479,0 14.14033,45.145457 13.91515,-45.145457 19.67937,0 z M 309.62604,30.060142 c 9.83968,12.181393 15.7615,27.672701 15.7615,44.537513 0,17.089975 -6.05692,32.761415 -16.12177,44.987845 l 214.55913,0 0,-89.525358 z M 254.52832,100.8293 c -14.47807,0 -26.23165,-11.753576 -26.23165,-26.231645 0,-14.500586 11.75358,-26.23165 26.23165,-26.23165 14.50058,0 26.23164,11.731064 26.23164,26.23165 0,14.478069 -11.73106,26.231645 -26.23164,26.231645 m 28.03296,-71.19697 -56.04341,0 c -14.99595,9.366838 -25.01576,25.983968 -25.01576,44.965325 0,19.161487 10.22246,35.891205 25.44357,45.213005 l 55.18779,0 c 15.22111,-9.3218 25.42105,-26.051518 25.42105,-45.213005 0,-18.981357 -9.99729,-35.598487 -24.99324,-44.965325"
       id="path18891" />
  </g>
</svg>
